<svg xmlns="http://www.w3.org/2000/svg" width="14.545" height="17.1" viewBox="0 0 14.545 17.1"><defs><style>.a{fill:#f23f2d;}</style></defs><g transform="translate(-36.073)"><g transform="translate(36.073)"><path class="a" d="M140.715,9.214h.113a3.268,3.268,0,0,0,2.5-1.08c1.363-1.537,1.137-4.171,1.112-4.423A3.613,3.613,0,0,0,142.72.5a3.937,3.937,0,0,0-1.905-.5h-.06a3.943,3.943,0,0,0-1.905.485,3.615,3.615,0,0,0-1.739,3.226c-.025.251-.251,2.886,1.112,4.423A3.254,3.254,0,0,0,140.715,9.214ZM138.056,3.8c0-.011,0-.021,0-.028.117-2.539,1.919-2.812,2.691-2.812h.042a2.589,2.589,0,0,1,2.691,2.812.069.069,0,0,0,0,.028c0,.025.251,2.433-.875,3.7a2.321,2.321,0,0,1-1.824.758h-.035a2.313,2.313,0,0,1-1.82-.758C137.812,6.239,138.053,3.821,138.056,3.8Z" transform="translate(-133.505)"/><path class="a" d="M50.617,263.648v-.011c0-.028,0-.057,0-.089-.021-.7-.067-2.341-1.6-2.865l-.035-.011a10.215,10.215,0,0,1-2.939-1.339.478.478,0,0,0-.549.783,11.03,11.03,0,0,0,3.233,1.477c.825.294.917,1.176.942,1.983a.711.711,0,0,0,0,.089,6.428,6.428,0,0,1-.074,1.094,13.032,13.032,0,0,1-6.243,1.452,13.106,13.106,0,0,1-6.247-1.455,6.085,6.085,0,0,1-.074-1.094c0-.028,0-.057,0-.089.025-.807.117-1.689.942-1.983a11.132,11.132,0,0,0,3.233-1.477.478.478,0,0,0-.549-.783,10.1,10.1,0,0,1-2.939,1.339l-.035.011c-1.537.528-1.583,2.167-1.6,2.865a.711.711,0,0,1,0,.089v.011a5.43,5.43,0,0,0,.181,1.6.454.454,0,0,0,.184.223,13.394,13.394,0,0,0,6.912,1.693,13.434,13.434,0,0,0,6.912-1.693.474.474,0,0,0,.184-.223A5.7,5.7,0,0,0,50.617,263.648Z" transform="translate(-36.073 -250.064)"/></g></g></svg>