<svg xmlns="http://www.w3.org/2000/svg" width="16" height="16.001" viewBox="0 0 16 16.001"><defs><style>.a{fill:#f23f2d;}</style></defs><g transform="translate(-0.001 -1)"><g transform="translate(0.001 1)"><path class="a" d="M12.222,6.111a6.111,6.111,0,1,0-6.111,6.111A6.111,6.111,0,0,0,12.222,6.111ZM6.112,10.694a4.583,4.583,0,1,1,4.583-4.583A4.588,4.588,0,0,1,6.112,10.694Z" transform="translate(-0.001 0)"/><path class="a" d="M302.135,299.982l-3.738-3.739a7.2,7.2,0,0,1-2.16,2.16l3.739,3.739a1.527,1.527,0,0,0,2.16-2.16Z" transform="translate(-286.582 -286.588)"/></g></g></svg>